<?xml version="1.0" encoding="utf-8"?>
<!-- Generator: Adobe Illustrator 24.0.2, SVG Export Plug-In . SVG Version: 6.00 Build 0)  -->
<svg version="1.1" id="Calque_1" xmlns="http://www.w3.org/2000/svg" xmlns:xlink="http://www.w3.org/1999/xlink" x="0px" y="0px"
	 viewBox="0 0 400 400" style="enable-background:new 0 0 400 400;" xml:space="preserve">
<style type="text/css">
	.st0{clip-path:url(#SVGID_2_);}
</style>
<g>
	<defs>
		<rect id="SVGID_1_" y="45" width="400.2" height="310"/>
	</defs>
	<clipPath id="SVGID_2_">
		<use xlink:href="#SVGID_1_"  style="overflow:visible;"/>
	</clipPath>
	<g class="st0">
		<path d="M338.8,72.6c-25.5-11.7-52.9-20.3-81.5-25.3c-0.5-0.1-1,0.1-1.3,0.6c-3.5,6.3-7.4,14.4-10.1,20.8
			c-30.8-4.6-61.4-4.6-91.5,0c-2.7-6.6-6.8-14.6-10.3-20.8c-0.3-0.5-0.8-0.7-1.3-0.6c-28.6,4.9-55.9,13.5-81.5,25.3
			c-0.2,0.1-0.4,0.3-0.5,0.5C8.9,150.6-5.3,226.2,1.7,300.8c0,0.4,0.2,0.7,0.5,0.9c34.2,25.1,67.4,40.4,99.9,50.5
			c0.5,0.2,1.1,0,1.4-0.5c7.7-10.5,14.6-21.6,20.4-33.3c0.3-0.7,0-1.5-0.7-1.8c-10.9-4.1-21.2-9.2-31.2-14.9
			c-0.8-0.5-0.9-1.6-0.1-2.1c2.1-1.6,4.2-3.2,6.2-4.9c0.4-0.3,0.9-0.4,1.3-0.2c65.5,29.9,136.4,29.9,201.1,0
			c0.4-0.2,0.9-0.1,1.3,0.2c2,1.7,4.1,3.3,6.2,4.9c0.7,0.5,0.7,1.7-0.1,2.1c-10,5.8-20.3,10.8-31.2,14.9c-0.7,0.3-1,1.1-0.7,1.8
			c6,11.6,12.9,22.7,20.4,33.2c0.3,0.4,0.9,0.6,1.4,0.5c32.7-10.1,65.9-25.4,100.1-50.5c0.3-0.2,0.5-0.6,0.5-0.9
			c8.3-86.3-14-161.3-59.2-227.8C339.2,72.9,339,72.7,338.8,72.6z M133.7,255.4c-19.7,0-36-18.1-36-40.3s15.9-40.3,36-40.3
			c20.2,0,36.3,18.3,36,40.3C169.7,237.3,153.8,255.4,133.7,255.4z M266.7,255.4c-19.7,0-36-18.1-36-40.3s15.9-40.3,36-40.3
			c20.2,0,36.3,18.3,36,40.3C302.7,237.3,286.9,255.4,266.7,255.4z"/>
	</g>
</g>
</svg>
