<?xml version="1.0" encoding="utf-8"?>
<!-- Generator: Adobe Illustrator 24.0.2, SVG Export Plug-In . SVG Version: 6.00 Build 0)  -->
<svg version="1.1" id="Calque_1" xmlns="http://www.w3.org/2000/svg" xmlns:xlink="http://www.w3.org/1999/xlink" x="0px" y="0px"
	 viewBox="0 0 400 400" style="enable-background:new 0 0 400 400;" xml:space="preserve">
<path d="M352.4,0H47.6C21.3,0,0,21.3,0,47.6v304.8C0,378.7,21.3,400,47.6,400h304.8c26.3,0,47.6-21.3,47.6-47.6V47.6
	C400,21.3,378.7,0,352.4,0z M314.3,142.9h-19c-20.4,0-28.6,4.8-28.6,19v28.6h47.6l-9.5,47.6h-38.1V381H219V238.1H181v-47.6H219
	v-28.6c0-38.1,19-66.7,57.1-66.7c27.6,0,38.1,9.5,38.1,9.5V142.9z"/>
</svg>
