<?xml version="1.0" encoding="utf-8"?>
<!-- Generator: Adobe Illustrator 24.0.2, SVG Export Plug-In . SVG Version: 6.00 Build 0)  -->
<svg version="1.1" id="Calque_1" xmlns="http://www.w3.org/2000/svg" xmlns:xlink="http://www.w3.org/1999/xlink" x="0px" y="0px"
	 viewBox="0 0 400 400" style="enable-background:new 0 0 400 400;" xml:space="preserve">
<path d="M389.1,102.3c-3.7-20.4-21.3-35.2-41.7-39.9c-30.6-6.5-87.1-11.1-148.3-11.1c-61.2,0-118.6,4.6-149.2,11.1
	c-20.4,4.6-38,18.5-41.7,39.9c-3.7,23.2-7.4,55.6-7.4,97.3S4.4,273.8,9,297c3.7,20.4,21.3,35.2,41.7,39.9
	C83.2,343.4,138.8,348,200,348s116.8-4.6,149.3-11.1c20.4-4.6,38-18.5,41.7-39.9c3.7-23.2,8.3-56.6,9.3-97.3
	C398.4,157.9,393.8,125.5,389.1,102.3z M149,264.6V134.8l113.1,64.9L149,264.6z"/>
</svg>
